HIERARCHY
ROOT Hips
{
  OFFSET -125.086 92.215 135.881
  CHANNELS 6 Xposition Yposition Zposition Zrotation Xrotation Yrotation
  JOINT LeftUpLeg
  {
    OFFSET 8.64259 1.95398 -2.38835
    CHANNELS 3 Zrotation Xrotation Yrotation
    JOINT LeftLeg
    {
      OFFSET 43.7702 0 0
      CHANNELS 3 Zrotation Xrotation Yrotation
      JOINT LeftFoot
      {
        OFFSET 40.6238 0 0
        CHANNELS 3 Zrotation Xrotation Yrotation
        JOINT LeftToeBase
        {
          OFFSET 12.7242 0 0
          CHANNELS 3 Zrotation Xrotation Yrotation
          End Site
          {
            OFFSET 0 0 0
          }
        }
      }
    }
  }
  JOINT RightUpLeg
  {
    OFFSET -8.2249 1.95398 -2.59336
    CHANNELS 3 Zrotation Xrotation Yrotation
    JOINT RightLeg
    {
      OFFSET 43.5653 0 0
      CHANNELS 3 Zrotation Xrotation Yrotation
      JOINT RightFoot
      {
        OFFSET 40.6238 0 0
        CHANNELS 3 Zrotation Xrotation Yrotation
        JOINT RightToeBase
        {
          OFFSET 12.7242 0 0
          CHANNELS 3 Zrotation Xrotation Yrotation
          End Site
          {
            OFFSET 0 0 0
          }
        }
      }
    }
  }
  JOINT Spine
  {
    OFFSET 0.165834 0.87714 6.61349
    CHANNELS 3 Zrotation Xrotation Yrotation
    JOINT Spine1
    {
      OFFSET 7.38963 1.71661e-005 0
      CHANNELS 3 Zrotation Xrotation Yrotation
      JOINT Spine2
      {
        OFFSET 11.9445 1.14441e-005 0
        CHANNELS 3 Zrotation Xrotation Yrotation
        JOINT Spine3
        {
          OFFSET 14.7254 4.19617e-005 0
          CHANNELS 3 Zrotation Xrotation Yrotation
          JOINT Spine4
          {
            OFFSET 10.9679 0 0
            CHANNELS 3 Zrotation Xrotation Yrotation
            JOINT RightShoulder
            {
              OFFSET 2.46616 -1.6653 3.69651
              CHANNELS 3 Zrotation Xrotation Yrotation
              JOINT RightArm
              {
                OFFSET 13.0012 0 0
                CHANNELS 3 Zrotation Xrotation Yrotation
                JOINT RightForeArm
                {
                  OFFSET 28.7848 1.52588e-005 0
                  CHANNELS 3 Zrotation Xrotation Yrotation
                  JOINT RightHand
                  {
                    OFFSET 26.5688 1.52588e-005 0
                    CHANNELS 3 Zrotation Xrotation Yrotation
                    End Site
                    {
                      OFFSET 0 0 0
                    }
                  }
                }
              }
            }
            JOINT LeftShoulder
            {
              OFFSET 2.38034 -1.29275 -3.7523
              CHANNELS 3 Zrotation Xrotation Yrotation
              JOINT LeftArm
              {
                OFFSET 16.3182 6.10352e-005 0
                CHANNELS 3 Zrotation Xrotation Yrotation
                JOINT LeftForeArm
                {
                  OFFSET 27.0901 0 0
                  CHANNELS 3 Zrotation Xrotation Yrotation
                  JOINT LeftHand
                  {
                    OFFSET 24.5451 1.52588e-005 0
                    CHANNELS 3 Zrotation Xrotation Yrotation
                    End Site
                    {
                      OFFSET 0 0 0
                    }
                  }
                }
              }
            }
            JOINT Neck
            {
              OFFSET 5.0226 -0.0266342 0
              CHANNELS 3 Zrotation Xrotation Yrotation
              JOINT Head
              {
                OFFSET 6.69363 2.86102e-005 0
                CHANNELS 3 Zrotation Xrotation Yrotation
                End Site
                {
                  OFFSET 0 0 0
                }
              }
            }
          }
        }
      }
    }
  }
}
MOTION
Frames:	7
Frame Time:	0.0416667
-180.493 95.0218 181.978 97.7542 53.0969 85.4894 -177.24 2.53212 88.8572 -13.1394 19.872 4.25917 56.957 3.33325 9.15748 38.8794 -1.01222 5.57518 175.66 4.8778 90.0191 -20.9149 7.34771 -0.0552068 62.6363 1.55943 18.3585 30.0595 0.294533 -5.64082 -0.620628 6.98507 -90.3697 12.9006 -1.40939 -0.568936 1.23032 -1.43309 -0.506346 -21.3084 -1.17324 -0.966248 -1.29574 -1.17325 -0.966256 113.566 -57.0782 -65.8977 24.1245 -24.5071 -1.49265 16.9646 6.93155 -77.0721 -12.2655 -0.394193 -1.49554 -75.8202 -49.1846 99.9774 -30.1201 19.4135 -12.4701 -15.1683 -2.85495 -41.8015 11.9191 -2.49329 -23.3631 4.16767 -1.12893 -3.25637 -30.3674 -1.89625 5.67844 
-180.469 95.0357 181.915 97.4304 52.9562 85.8768 -177.175 2.79542 88.9541 -13.4254 19.7821 4.28194 56.6019 3.02075 9.28483 40.0039 -1.03045 4.31607 175.729 4.96856 90.139 -20.8131 7.37039 -0.0577762 62.5252 1.59809 18.4926 30.1754 0.291826 -5.8849 -0.596717 6.9662 -90.387 12.9382 -1.37029 -0.607691 1.26782 -1.39573 -0.546786 -21.2704 -1.12432 -0.991446 -1.25776 -1.12433 -0.991461 113.644 -57.063 -65.7839 23.9876 -24.591 -1.55774 13.874 6.10665 -76.4272 -11.6677 -0.470944 -0.416605 -75.8016 -49.1928 100.006 -30.1814 19.336 -12.6125 -15.2519 -3.07011 -41.7084 12.4489 -2.58493 -23.3742 3.8729 -1.04454 -3.45255 -29.7778 -1.8135 5.92529 
-180.408 95.0452 181.752 96.6615 52.5555 86.8067 -176.968 3.23962 89.2348 -13.7111 19.6735 4.25397 56.8958 3.13369 9.42849 39.911 -1.02871 4.42147 175.84 5.03944 90.4022 -20.2229 6.89813 -0.00405072 62.4111 1.45694 18.2627 30.0886 0.303495 -5.81059 -0.540891 6.93193 -90.4172 13.0063 -1.2742 -0.678971 1.33585 -1.30282 -0.622235 -21.2013 -1.01123 -1.03053 -1.18867 -1.01123 -1.03054 113.735 -57.1591 -65.6733 23.7581 -23.3431 -1.79048 10.198 5.35845 -75.5283 -6.39469 -0.325333 0.727554 -75.8164 -49.0799 99.9868 -30.1582 19.3676 -12.5823 -15.2691 -3.25741 -42.2238 14.0414 -2.7693 -22.7902 4.17648 -1.08994 -3.5652 -30.0707 -1.87154 6.03775 
-180.319 95.0734 181.56 95.7567 51.9874 88.0482 -176.627 3.76593 89.6928 -14.0526 19.3998 4.23446 57.2336 3.2292 9.57727 39.7423 -1.01849 4.29598 176.013 5.14412 90.8452 -19.5466 6.63115 0.0966151 62.0351 1.42541 18.3381 30.1635 0.285066 -5.77954 -0.466243 6.87661 -90.4788 13.1163 -1.1558 -0.815047 1.44562 -1.19056 -0.763394 -21.09 -0.857431 -1.12472 -1.07737 -0.857412 -1.12472 113.66 -57.16 -65.7793 23.7312 -23.321 -1.7681 9.94082 5.28348 -75.5359 -6.11218 -0.312056 0.83383 -75.7743 -49.1358 100.049 -30.07 19.4199 -12.5105 -15.6548 -3.82175 -42.9081 16.8746 -3.07945 -21.8602 4.43637 -1.07776 -3.36211 -30.4141 -1.81285 5.64468 
-180.205 95.0967 181.326 94.5694 51.2353 89.5511 -176.137 4.26502 90.2918 -13.8428 19.0149 4.06334 57.3976 3.20238 9.23217 40.124 -1.038 4.37992 176.272 5.34541 91.3659 -18.7366 6.26422 0.154159 61.731 1.29249 18.2841 30.2116 0.246027 -5.4463 -0.364834 6.80138 -90.537 13.2663 -0.982967 -0.951326 1.5954 -1.02387 -0.907164 -20.9385 -0.651622 -1.20274 -0.925858 -0.65164 -1.20276 113.676 -57.115 -65.749 23.8741 -23.912 -1.74174 11.4064 5.6894 -75.6852 -7.5932 -0.383915 0.753858 -75.8715 -48.9958 99.9049 -30.2118 19.5361 -12.3002 -16.2876 -4.74172 -44.0143 21.2601 -3.55668 -20.8297 4.09562 -1.10019 -3.62691 -29.8597 -1.85608 6.01364 
-180.076 95.0978 181.14 93.6482 50.4638 90.876 -175.69 5.00878 90.8705 -14.5744 18.7216 3.98342 58.0882 3.49762 9.63239 39.4472 -0.99941 4.07614 176.468 5.62312 91.9133 -18.2708 5.50545 0.289285 61.1622 1.2426 18.0133 30.6846 0.162319 -5.60987 -0.252486 6.74556 -90.6065 13.3777 -0.794074 -1.11335 1.70654 -0.842296 -1.07734 -20.8255 -0.422806 -1.3005 -0.812865 -0.422793 -1.3005 113.784 -57.2179 -65.6152 23.7819 -23.6929 -1.72664 11.1126 5.62441 -75.6142 -7.12049 -0.343682 0.474523 -75.8769 -49.1044 99.893 -30.1325 19.4977 -12.3781 -16.6264 -5.32999 -44.8884 26.0949 -4.06317 -19.9381 4.03691 -1.08658 -3.30639 -29.7215 -1.77386 5.50057 
-179.959 95.0993 181.021 92.6795 49.6029 92.1846 -175.155 5.65304 91.5092 -14.7881 18.6771 3.7743 58.1888 3.43882 9.80422 39.9625 -1.02594 4.11832 176.773 6.05026 92.4697 -17.9488 5.54665 0.31092 61.0059 1.12103 18.5209 30.5534 0.191712 -5.63629 -0.145774 6.68299 -90.669 13.5028 -0.613297 -1.26103 1.83141 -0.668183 -1.23283 -20.6991 -0.206007 -1.38702 -0.686398 -0.20599 -1.38703 113.694 -57.1814 -65.735 23.8825 -23.6206 -1.6368 11.2148 5.65924 -75.737 -7.18868 -0.354913 0.61015 -75.6885 -49.3203 100.174 -29.9859 19.3673 -12.371 -16.7822 -5.77191 -45.9423 31.6987 -4.61509 -19.0774 4.08293 -0.996709 -2.97914 -29.8053 -1.65226 5.10126 
